<svg xmlns="http://www.w3.org/2000/svg" xmlns:xlink="http://www.w3.org/1999/xlink" width="726" height="276" viewBox="0 0 726 276"><defs><path id="tyica" d="M981.7 531.8v-97.6l-60.8 97.6zm-261.2 114c-78 0-114.4-67.6-114.4-138s36.4-137.6 114.4-137.6 114.4 67.2 114.4 137.6c0 70.4-36.4 138-114.4 138zm0-60.8c32 0 44.8-30 44.8-77.2S752.5 431 720.5 431c-32 0-44.8 29.6-44.8 76.8 0 47.2 12.8 77.2 44.8 77.2zm330.4 56h-69.2v-48.8H854.1v-53.6l101.2-164.4h95.6v157.6h32.4v60.4h-32.4zM485.7 531.8v-97.6l-60.8 97.6zM554.9 641h-69.2v-48.8H358.1v-53.6l101.2-164.4h95.6v157.6h32.4v60.4h-32.4z"/></defs><g><g transform="translate(-358 -370)"><use fill="#fff" xlink:href="#tyica"/></g></g></svg>